<svg width="6154" height="249" viewBox="0 0 6154 249" fill="none" xmlns="http://www.w3.org/2000/svg">
<path d="M84.28 15.04C100.44 15.04 114.84 18.72 127.48 26.08C140.12 33.28 149.88 43.36 156.76 56.32C163.8 69.12 167.32 83.76 167.32 100.24C167.32 116.72 163.8 131.44 156.76 144.4C149.88 157.2 140.12 167.28 127.48 174.64C114.84 181.84 100.44 185.44 84.28 185.44C67.96 185.44 53.48 181.84 40.84 174.64C28.2 167.28 18.36 157.2 11.32 144.4C4.28 131.44 0.760001 116.72 0.760001 100.24C0.760001 83.76 4.28 69.12 11.32 56.32C18.36 43.36 28.2 33.28 40.84 26.08C53.48 18.72 67.96 15.04 84.28 15.04ZM84.28 24.64C69.4 24.64 56.44 27.84 45.4 34.24C34.36 40.48 25.88 49.28 19.96 60.64C14.04 72 11.08 85.2 11.08 100.24C11.08 115.12 14.04 128.32 19.96 139.84C25.88 151.2 34.36 160.08 45.4 166.48C56.44 172.88 69.4 176.08 84.28 176.08C99 176.08 111.8 172.88 122.68 166.48C133.72 160.08 142.2 151.2 148.12 139.84C154.04 128.32 157 115.12 157 100.24C157 85.2 154.04 72 148.12 60.64C142.2 49.28 133.72 40.48 122.68 34.24C111.8 27.84 99 24.64 84.28 24.64ZM83.8 44.56C74.2 44.56 65.4 46.8 57.4 51.28C49.56 55.76 43.32 62.24 38.68 70.72C34.04 79.04 31.72 88.8 31.72 100C31.72 111.2 34.04 121.04 38.68 129.52C43.32 137.84 49.56 144.32 57.4 148.96C65.4 153.44 74.2 155.68 83.8 155.68C95.8 155.68 106.2 152.48 115 146.08C123.8 139.52 129.8 130.8 133 119.92H112.84C108.04 133.2 98.36 139.84 83.8 139.84C74.2 139.84 66.36 136.4 60.28 129.52C54.2 122.64 51.16 112.88 51.16 100.24C51.16 87.44 54.2 77.6 60.28 70.72C66.36 63.84 74.2 60.4 83.8 60.4C90.84 60.4 96.92 62.16 102.04 65.68C107.16 69.04 110.76 73.92 112.84 80.32H133C129.96 68.96 124.04 60.16 115.24 53.92C106.44 47.68 95.96 44.56 83.8 44.56ZM255.303 166.48C275.623 150.16 291.543 136.8 303.062 126.4C314.583 115.84 324.263 104.88 332.103 93.52C340.103 82 344.103 70.72 344.103 59.68C344.103 49.28 341.543 41.12 336.423 35.2C331.463 29.12 323.383 26.08 312.183 26.08C301.303 26.08 292.823 29.52 286.743 36.4C280.823 43.12 277.623 52.16 277.143 63.52H256.023C256.663 45.6 262.103 31.76 272.343 22C282.583 12.24 295.783 7.35999 311.943 7.35999C328.423 7.35999 341.463 11.92 351.063 21.04C360.823 30.16 365.703 42.72 365.703 58.72C365.703 72 361.703 84.96 353.703 97.6C345.863 110.08 336.903 121.12 326.823 130.72C316.743 140.16 303.863 151.2 288.183 163.84H370.743V182.08H255.303V166.48ZM395.989 95.44C395.989 67.92 400.469 46.48 409.429 31.12C418.389 15.6 434.069 7.83999 456.469 7.83999C478.709 7.83999 494.309 15.6 503.269 31.12C512.229 46.48 516.709 67.92 516.709 95.44C516.709 123.44 512.229 145.2 503.269 160.72C494.309 176.24 478.709 184 456.469 184C434.069 184 418.389 176.24 409.429 160.72C400.469 145.2 395.989 123.44 395.989 95.44ZM495.109 95.44C495.109 81.52 494.149 69.76 492.229 60.16C490.469 50.4 486.709 42.56 480.949 36.64C475.349 30.72 467.189 27.76 456.469 27.76C445.589 27.76 437.269 30.72 431.509 36.64C425.909 42.56 422.149 50.4 420.229 60.16C418.469 69.76 417.589 81.52 417.589 95.44C417.589 109.84 418.469 121.92 420.229 131.68C422.149 141.44 425.909 149.28 431.509 155.2C437.269 161.12 445.589 164.08 456.469 164.08C467.189 164.08 475.349 161.12 480.949 155.2C486.709 149.28 490.469 141.44 492.229 131.68C494.149 121.92 495.109 109.84 495.109 95.44ZM544.053 166.48C564.373 150.16 580.293 136.8 591.812 126.4C603.333 115.84 613.013 104.88 620.853 93.52C628.853 82 632.853 70.72 632.853 59.68C632.853 49.28 630.293 41.12 625.173 35.2C620.213 29.12 612.133 26.08 600.933 26.08C590.053 26.08 581.573 29.52 575.493 36.4C569.573 43.12 566.373 52.16 565.893 63.52H544.773C545.413 45.6 550.853 31.76 561.093 22C571.333 12.24 584.533 7.35999 600.693 7.35999C617.173 7.35999 630.213 11.92 639.813 21.04C649.573 30.16 654.453 42.72 654.453 58.72C654.453 72 650.453 84.96 642.453 97.6C634.613 110.08 625.653 121.12 615.573 130.72C605.493 140.16 592.613 151.2 576.933 163.84H659.493V182.08H544.053V166.48ZM795.379 29.44H711.139V84.16C714.819 79.04 720.259 74.88 727.459 71.68C734.659 68.32 742.419 66.64 750.739 66.64C764.019 66.64 774.819 69.44 783.139 75.04C791.459 80.48 797.379 87.6 800.899 96.4C804.579 105.04 806.419 114.24 806.419 124C806.419 135.52 804.259 145.84 799.939 154.96C795.619 164.08 788.979 171.28 780.019 176.56C771.219 181.84 760.259 184.48 747.139 184.48C730.339 184.48 716.739 180.16 706.339 171.52C695.939 162.88 689.619 151.36 687.379 136.96H708.739C710.819 146.08 715.219 153.2 721.939 158.32C728.659 163.44 737.139 166 747.379 166C760.019 166 769.539 162.24 775.939 154.72C782.339 147.04 785.539 136.96 785.539 124.48C785.539 112 782.339 102.4 775.939 95.68C769.539 88.8 760.099 85.36 747.619 85.36C739.139 85.36 731.699 87.44 725.299 91.6C719.059 95.6 714.499 101.12 711.619 108.16H690.979V10.24H795.379V29.44ZM956.067 185.68C945.027 185.68 935.107 183.76 926.307 179.92C917.667 175.92 910.867 170.48 905.907 163.6C900.947 156.56 898.387 148.48 898.227 139.36H921.507C922.307 147.2 925.507 153.84 931.107 159.28C936.867 164.56 945.187 167.2 956.067 167.2C966.467 167.2 974.627 164.64 980.547 159.52C986.627 154.24 989.667 147.52 989.667 139.36C989.667 132.96 987.907 127.76 984.387 123.76C980.867 119.76 976.467 116.72 971.187 114.64C965.907 112.56 958.787 110.32 949.827 107.92C938.787 105.04 929.907 102.16 923.187 99.28C916.627 96.4 910.947 91.92 906.147 85.84C901.507 79.6 899.187 71.28 899.187 60.88C899.187 51.76 901.507 43.68 906.147 36.64C910.787 29.6 917.267 24.16 925.587 20.32C934.067 16.48 943.747 14.56 954.627 14.56C970.307 14.56 983.107 18.48 993.027 26.32C1003.11 34.16 1008.79 44.56 1010.07 57.52H986.067C985.267 51.12 981.907 45.52 975.987 40.72C970.067 35.76 962.227 33.28 952.467 33.28C943.347 33.28 935.907 35.68 930.147 40.48C924.387 45.12 921.507 51.68 921.507 60.16C921.507 66.24 923.187 71.2 926.547 75.04C930.067 78.88 934.307 81.84 939.267 83.92C944.387 85.84 951.507 88.08 960.627 90.64C971.667 93.68 980.547 96.72 987.267 99.76C993.987 102.64 999.747 107.2 1004.55 113.44C1009.35 119.52 1011.75 127.84 1011.75 138.4C1011.75 146.56 1009.59 154.24 1005.27 161.44C1000.95 168.64 994.547 174.48 986.067 178.96C977.587 183.44 967.587 185.68 956.067 185.68ZM1178.05 215.68L1144.69 182.32C1136.53 184.56 1128.21 185.68 1119.73 185.68C1104.21 185.68 1090.05 182.08 1077.25 174.88C1064.45 167.52 1054.29 157.36 1046.77 144.4C1039.41 131.28 1035.73 116.56 1035.73 100.24C1035.73 83.92 1039.41 69.28 1046.77 56.32C1054.29 43.2 1064.45 33.04 1077.25 25.84C1090.05 18.48 1104.21 14.8 1119.73 14.8C1135.41 14.8 1149.65 18.48 1162.45 25.84C1175.25 33.04 1185.33 43.12 1192.69 56.08C1200.05 69.04 1203.73 83.76 1203.73 100.24C1203.73 116.24 1200.21 130.64 1193.17 143.44C1186.13 156.24 1176.45 166.32 1164.13 173.68L1206.37 215.68H1178.05ZM1058.05 100.24C1058.05 113.52 1060.69 125.2 1065.97 135.28C1071.41 145.36 1078.77 153.12 1088.05 158.56C1097.49 164 1108.05 166.72 1119.73 166.72C1131.41 166.72 1141.89 164 1151.17 158.56C1160.61 153.12 1167.97 145.36 1173.25 135.28C1178.69 125.2 1181.41 113.52 1181.41 100.24C1181.41 86.8 1178.69 75.12 1173.25 65.2C1167.97 55.12 1160.69 47.36 1151.41 41.92C1142.13 36.48 1131.57 33.76 1119.73 33.76C1107.89 33.76 1097.33 36.48 1088.05 41.92C1078.77 47.36 1071.41 55.12 1065.97 65.2C1060.69 75.12 1058.05 86.8 1058.05 100.24ZM1254.87 166.24H1313.43V184H1233.03V16.72H1254.87V166.24ZM1328.46 117.76C1328.46 104.32 1331.18 92.56 1336.62 82.48C1342.06 72.24 1349.5 64.32 1358.94 58.72C1368.54 53.12 1379.18 50.32 1390.86 50.32C1402.38 50.32 1412.38 52.8 1420.86 57.76C1429.34 62.72 1435.66 68.96 1439.82 76.48V52.48H1461.9V184H1439.82V159.52C1435.5 167.2 1429.02 173.6 1420.38 178.72C1411.9 183.68 1401.98 186.16 1390.62 186.16C1378.94 186.16 1368.38 183.28 1358.94 177.52C1349.5 171.76 1342.06 163.68 1336.62 153.28C1331.18 142.88 1328.46 131.04 1328.46 117.76ZM1439.82 118C1439.82 108.08 1437.82 99.44 1433.82 92.08C1429.82 84.72 1424.38 79.12 1417.5 75.28C1410.78 71.28 1403.34 69.28 1395.18 69.28C1387.02 69.28 1379.58 71.2 1372.86 75.04C1366.14 78.88 1360.78 84.48 1356.78 91.84C1352.78 99.2 1350.78 107.84 1350.78 117.76C1350.78 127.84 1352.78 136.64 1356.78 144.16C1360.78 151.52 1366.14 157.2 1372.86 161.2C1379.58 165.04 1387.02 166.96 1395.18 166.96C1403.34 166.96 1410.78 165.04 1417.5 161.2C1424.38 157.2 1429.82 151.52 1433.82 144.16C1437.82 136.64 1439.82 127.92 1439.82 118ZM1520.65 76.96C1525.13 69.12 1531.69 62.72 1540.33 57.76C1548.97 52.8 1558.81 50.32 1569.85 50.32C1581.69 50.32 1592.33 53.12 1601.77 58.72C1611.21 64.32 1618.65 72.24 1624.09 82.48C1629.53 92.56 1632.25 104.32 1632.25 117.76C1632.25 131.04 1629.53 142.88 1624.09 153.28C1618.65 163.68 1611.13 171.76 1601.53 177.52C1592.09 183.28 1581.53 186.16 1569.85 186.16C1558.49 186.16 1548.49 183.68 1539.85 178.72C1531.37 173.76 1524.97 167.44 1520.65 159.76V184H1498.81V6.4H1520.65V76.96ZM1609.93 117.76C1609.93 107.84 1607.93 99.2 1603.93 91.84C1599.93 84.48 1594.49 78.88 1587.61 75.04C1580.89 71.2 1573.45 69.28 1565.29 69.28C1557.29 69.28 1549.85 71.28 1542.97 75.28C1536.25 79.12 1530.81 84.8 1526.65 92.32C1522.65 99.68 1520.65 108.24 1520.65 118C1520.65 127.92 1522.65 136.64 1526.65 144.16C1530.81 151.52 1536.25 157.2 1542.97 161.2C1549.85 165.04 1557.29 166.96 1565.29 166.96C1573.45 166.96 1580.89 165.04 1587.61 161.2C1594.49 157.2 1599.93 151.52 1603.93 144.16C1607.93 136.64 1609.93 127.84 1609.93 117.76ZM1667.96 185.44C1663.8 185.44 1660.28 184 1657.4 181.12C1654.52 178.24 1653.08 174.72 1653.08 170.56C1653.08 166.4 1654.52 162.88 1657.4 160C1660.28 157.12 1663.8 155.68 1667.96 155.68C1671.96 155.68 1675.32 157.12 1678.04 160C1680.92 162.88 1682.36 166.4 1682.36 170.56C1682.36 174.72 1680.92 178.24 1678.04 181.12C1675.32 184 1671.96 185.44 1667.96 185.44ZM1874.25 146.8H1801.29L1787.85 184H1764.81L1825.29 17.68H1850.49L1910.73 184H1887.69L1874.25 146.8ZM1868.01 129.04L1837.77 44.56L1807.53 129.04H1868.01ZM1958.93 6.4V184H1937.09V6.4H1958.93ZM2017.99 6.4V184H1996.15V6.4H2017.99ZM2207.28 184L2167.44 115.6H2141.04V184H2119.2V16.72H2173.2C2185.84 16.72 2196.48 18.88 2205.12 23.2C2213.92 27.52 2220.48 33.36 2224.8 40.72C2229.12 48.08 2231.28 56.48 2231.28 65.92C2231.28 77.44 2227.92 87.6 2221.2 96.4C2214.64 105.2 2204.72 111.04 2191.44 113.92L2233.44 184H2207.28ZM2141.04 98.08H2173.2C2185.04 98.08 2193.92 95.2 2199.84 89.44C2205.76 83.52 2208.72 75.68 2208.72 65.92C2208.72 56 2205.76 48.32 2199.84 42.88C2194.08 37.44 2185.2 34.72 2173.2 34.72H2141.04V98.08ZM2276.49 31.12C2272.33 31.12 2268.81 29.68 2265.93 26.8C2263.05 23.92 2261.61 20.4 2261.61 16.24C2261.61 12.08 2263.05 8.55999 2265.93 5.67999C2268.81 2.79999 2272.33 1.35999 2276.49 1.35999C2280.49 1.35999 2283.85 2.79999 2286.57 5.67999C2289.45 8.55999 2290.89 12.08 2290.89 16.24C2290.89 20.4 2289.45 23.92 2286.57 26.8C2283.85 29.68 2280.49 31.12 2276.49 31.12ZM2287.05 52.48V184H2265.21V52.48H2287.05ZM2378.52 50.32C2389.88 50.32 2399.8 52.8 2408.28 57.76C2416.92 62.72 2423.32 68.96 2427.48 76.48V52.48H2449.56V186.88C2449.56 198.88 2447 209.52 2441.88 218.8C2436.76 228.24 2429.4 235.6 2419.8 240.88C2410.36 246.16 2399.32 248.8 2386.68 248.8C2369.4 248.8 2355 244.72 2343.48 236.56C2331.96 228.4 2325.16 217.28 2323.08 203.2H2344.68C2347.08 211.2 2352.04 217.6 2359.56 222.4C2367.08 227.36 2376.12 229.84 2386.68 229.84C2398.68 229.84 2408.44 226.08 2415.96 218.56C2423.64 211.04 2427.48 200.48 2427.48 186.88V159.28C2423.16 166.96 2416.76 173.36 2408.28 178.48C2399.8 183.6 2389.88 186.16 2378.52 186.16C2366.84 186.16 2356.2 183.28 2346.6 177.52C2337.16 171.76 2329.72 163.68 2324.28 153.28C2318.84 142.88 2316.12 131.04 2316.12 117.76C2316.12 104.32 2318.84 92.56 2324.28 82.48C2329.72 72.24 2337.16 64.32 2346.6 58.72C2356.2 53.12 2366.84 50.32 2378.52 50.32ZM2427.48 118C2427.48 108.08 2425.48 99.44 2421.48 92.08C2417.48 84.72 2412.04 79.12 2405.16 75.28C2398.44 71.28 2391 69.28 2382.84 69.28C2374.68 69.28 2367.24 71.2 2360.52 75.04C2353.8 78.88 2348.44 84.48 2344.44 91.84C2340.44 99.2 2338.44 107.84 2338.44 117.76C2338.44 127.84 2340.44 136.64 2344.44 144.16C2348.44 151.52 2353.8 157.2 2360.52 161.2C2367.24 165.04 2374.68 166.96 2382.84 166.96C2391 166.96 2398.44 165.04 2405.16 161.2C2412.04 157.2 2417.48 151.52 2421.48 144.16C2425.48 136.64 2427.48 127.92 2427.48 118ZM2551.74 50.08C2561.66 50.08 2570.62 52.24 2578.62 56.56C2586.62 60.72 2592.86 67.04 2597.34 75.52C2601.98 84 2604.3 94.32 2604.3 106.48V184H2582.7V109.6C2582.7 96.48 2579.42 86.48 2572.86 79.6C2566.3 72.56 2557.34 69.04 2545.98 69.04C2534.46 69.04 2525.26 72.64 2518.38 79.84C2511.66 87.04 2508.3 97.52 2508.3 111.28V184H2486.46V6.4H2508.3V71.2C2512.62 64.48 2518.54 59.28 2526.06 55.6C2533.74 51.92 2542.3 50.08 2551.74 50.08ZM2666.62 70.48V148C2666.62 154.4 2667.98 158.96 2670.7 161.68C2673.42 164.24 2678.14 165.52 2684.86 165.52H2700.94V184H2681.26C2669.1 184 2659.98 181.2 2653.9 175.6C2647.82 170 2644.78 160.8 2644.78 148V70.48H2627.74V52.48H2644.78V19.36H2666.62V52.48H2700.94V70.48H2666.62ZM2773.96 186.16C2763.88 186.16 2754.84 184.48 2746.84 181.12C2738.84 177.6 2732.52 172.8 2727.88 166.72C2723.24 160.48 2720.68 153.36 2720.2 145.36H2742.76C2743.4 151.92 2746.44 157.28 2751.88 161.44C2757.48 165.6 2764.76 167.68 2773.72 167.68C2782.04 167.68 2788.6 165.84 2793.4 162.16C2798.2 158.48 2800.6 153.84 2800.6 148.24C2800.6 142.48 2798.04 138.24 2792.92 135.52C2787.8 132.64 2779.88 129.84 2769.16 127.12C2759.4 124.56 2751.4 122 2745.16 119.44C2739.08 116.72 2733.8 112.8 2729.32 107.68C2725 102.4 2722.84 95.52 2722.84 87.04C2722.84 80.32 2724.84 74.16 2728.84 68.56C2732.84 62.96 2738.52 58.56 2745.88 55.36C2753.24 52 2761.64 50.32 2771.08 50.32C2785.64 50.32 2797.4 54 2806.36 61.36C2815.32 68.72 2820.12 78.8 2820.76 91.6H2798.92C2798.44 84.72 2795.64 79.2 2790.52 75.04C2785.56 70.88 2778.84 68.8 2770.36 68.8C2762.52 68.8 2756.28 70.48 2751.64 73.84C2747 77.2 2744.68 81.6 2744.68 87.04C2744.68 91.36 2746.04 94.96 2748.76 97.84C2751.64 100.56 2755.16 102.8 2759.32 104.56C2763.64 106.16 2769.56 108 2777.08 110.08C2786.52 112.64 2794.2 115.2 2800.12 117.76C2806.04 120.16 2811.08 123.84 2815.24 128.8C2819.56 133.76 2821.8 140.24 2821.96 148.24C2821.96 155.44 2819.96 161.92 2815.96 167.68C2811.96 173.44 2806.28 178 2798.92 181.36C2791.72 184.56 2783.4 186.16 2773.96 186.16ZM3004.86 184L2965.02 115.6H2938.62V184H2916.78V16.72H2970.78C2983.42 16.72 2994.06 18.88 3002.7 23.2C3011.5 27.52 3018.06 33.36 3022.38 40.72C3026.7 48.08 3028.86 56.48 3028.86 65.92C3028.86 77.44 3025.5 87.6 3018.78 96.4C3012.22 105.2 3002.3 111.04 2989.02 113.92L3031.02 184H3004.86ZM2938.62 98.08H2970.78C2982.62 98.08 2991.5 95.2 2997.42 89.44C3003.34 83.52 3006.3 75.68 3006.3 65.92C3006.3 56 3003.34 48.32 2997.42 42.88C2991.66 37.44 2982.78 34.72 2970.78 34.72H2938.62V98.08ZM3182.79 113.2C3182.79 117.36 3182.55 121.76 3182.07 126.4H3076.95C3077.75 139.36 3082.15 149.52 3090.15 156.88C3098.31 164.08 3108.15 167.68 3119.67 167.68C3129.11 167.68 3136.95 165.52 3143.19 161.2C3149.59 156.72 3154.07 150.8 3156.63 143.44H3180.15C3176.63 156.08 3169.59 166.4 3159.03 174.4C3148.47 182.24 3135.35 186.16 3119.67 186.16C3107.19 186.16 3095.99 183.36 3086.07 177.76C3076.31 172.16 3068.63 164.24 3063.03 154C3057.43 143.6 3054.63 131.6 3054.63 118C3054.63 104.4 3057.35 92.48 3062.79 82.24C3068.23 72 3075.83 64.16 3085.59 58.72C3095.51 53.12 3106.87 50.32 3119.67 50.32C3132.15 50.32 3143.19 53.04 3152.79 58.48C3162.39 63.92 3169.75 71.44 3174.87 81.04C3180.15 90.48 3182.79 101.2 3182.79 113.2ZM3160.23 108.64C3160.23 100.32 3158.39 93.2 3154.71 87.28C3151.03 81.2 3145.99 76.64 3139.59 73.6C3133.35 70.4 3126.39 68.8 3118.71 68.8C3107.67 68.8 3098.23 72.32 3090.39 79.36C3082.71 86.4 3078.31 96.16 3077.19 108.64H3160.23ZM3258.18 186.16C3248.1 186.16 3239.06 184.48 3231.06 181.12C3223.06 177.6 3216.74 172.8 3212.1 166.72C3207.46 160.48 3204.9 153.36 3204.42 145.36H3226.98C3227.62 151.92 3230.66 157.28 3236.1 161.44C3241.7 165.6 3248.98 167.68 3257.94 167.68C3266.26 167.68 3272.82 165.84 3277.62 162.16C3282.42 158.48 3284.82 153.84 3284.82 148.24C3284.82 142.48 3282.26 138.24 3277.14 135.52C3272.02 132.64 3264.1 129.84 3253.38 127.12C3243.62 124.56 3235.62 122 3229.38 119.44C3223.3 116.72 3218.02 112.8 3213.54 107.68C3209.22 102.4 3207.06 95.52 3207.06 87.04C3207.06 80.32 3209.06 74.16 3213.06 68.56C3217.06 62.96 3222.74 58.56 3230.1 55.36C3237.46 52 3245.86 50.32 3255.3 50.32C3269.86 50.32 3281.62 54 3290.58 61.36C3299.54 68.72 3304.34 78.8 3304.98 91.6H3283.14C3282.66 84.72 3279.86 79.2 3274.74 75.04C3269.78 70.88 3263.06 68.8 3254.58 68.8C3246.74 68.8 3240.5 70.48 3235.86 73.84C3231.22 77.2 3228.9 81.6 3228.9 87.04C3228.9 91.36 3230.26 94.96 3232.98 97.84C3235.86 100.56 3239.38 102.8 3243.54 104.56C3247.86 106.16 3253.78 108 3261.3 110.08C3270.74 112.64 3278.42 115.2 3284.34 117.76C3290.26 120.16 3295.3 123.84 3299.46 128.8C3303.78 133.76 3306.02 140.24 3306.18 148.24C3306.18 155.44 3304.18 161.92 3300.18 167.68C3296.18 173.44 3290.5 178 3283.14 181.36C3275.94 184.56 3267.62 186.16 3258.18 186.16ZM3457.01 113.2C3457.01 117.36 3456.77 121.76 3456.29 126.4H3351.17C3351.97 139.36 3356.37 149.52 3364.37 156.88C3372.53 164.08 3382.37 167.68 3393.89 167.68C3403.33 167.68 3411.17 165.52 3417.41 161.2C3423.81 156.72 3428.29 150.8 3430.85 143.44H3454.37C3450.85 156.08 3443.81 166.4 3433.25 174.4C3422.69 182.24 3409.57 186.16 3393.89 186.16C3381.41 186.16 3370.21 183.36 3360.29 177.76C3350.53 172.16 3342.85 164.24 3337.25 154C3331.65 143.6 3328.85 131.6 3328.85 118C3328.85 104.4 3331.57 92.48 3337.01 82.24C3342.45 72 3350.05 64.16 3359.81 58.72C3369.73 53.12 3381.09 50.32 3393.89 50.32C3406.37 50.32 3417.41 53.04 3427.01 58.48C3436.61 63.92 3443.97 71.44 3449.09 81.04C3454.37 90.48 3457.01 101.2 3457.01 113.2ZM3434.45 108.64C3434.45 100.32 3432.61 93.2 3428.93 87.28C3425.25 81.2 3420.21 76.64 3413.81 73.6C3407.57 70.4 3400.61 68.8 3392.93 68.8C3381.89 68.8 3372.45 72.32 3364.61 79.36C3356.93 86.4 3352.53 96.16 3351.41 108.64H3434.45ZM3507.68 73.84C3511.52 66.32 3516.96 60.48 3524 56.32C3531.2 52.16 3539.92 50.08 3550.16 50.08V72.64H3544.4C3519.92 72.64 3507.68 85.92 3507.68 112.48V184H3485.84V52.48H3507.68V73.84ZM3624.33 163.84L3665.13 52.48H3688.41L3636.81 184H3611.37L3559.77 52.48H3583.29L3624.33 163.84ZM3829.9 113.2C3829.9 117.36 3829.66 121.76 3829.18 126.4H3724.06C3724.86 139.36 3729.26 149.52 3737.26 156.88C3745.42 164.08 3755.26 167.68 3766.78 167.68C3776.22 167.68 3784.06 165.52 3790.3 161.2C3796.7 156.72 3801.18 150.8 3803.74 143.44H3827.26C3823.74 156.08 3816.7 166.4 3806.14 174.4C3795.58 182.24 3782.46 186.16 3766.78 186.16C3754.3 186.16 3743.1 183.36 3733.18 177.76C3723.42 172.16 3715.74 164.24 3710.14 154C3704.54 143.6 3701.74 131.6 3701.74 118C3701.74 104.4 3704.46 92.48 3709.9 82.24C3715.34 72 3722.94 64.16 3732.7 58.72C3742.62 53.12 3753.98 50.32 3766.78 50.32C3779.26 50.32 3790.3 53.04 3799.9 58.48C3809.5 63.92 3816.86 71.44 3821.98 81.04C3827.26 90.48 3829.9 101.2 3829.9 113.2ZM3807.34 108.64C3807.34 100.32 3805.5 93.2 3801.82 87.28C3798.14 81.2 3793.1 76.64 3786.7 73.6C3780.46 70.4 3773.5 68.8 3765.82 68.8C3754.78 68.8 3745.34 72.32 3737.5 79.36C3729.82 86.4 3725.42 96.16 3724.3 108.64H3807.34ZM3850.57 117.76C3850.57 104.32 3853.29 92.56 3858.73 82.48C3864.17 72.24 3871.61 64.32 3881.05 58.72C3890.65 53.12 3901.37 50.32 3913.21 50.32C3923.45 50.32 3932.97 52.72 3941.77 57.52C3950.57 62.16 3957.29 68.32 3961.93 76V6.4H3984.01V184H3961.93V159.28C3957.61 167.12 3951.21 173.6 3942.73 178.72C3934.25 183.68 3924.33 186.16 3912.97 186.16C3901.29 186.16 3890.65 183.28 3881.05 177.52C3871.61 171.76 3864.17 163.68 3858.73 153.28C3853.29 142.88 3850.57 131.04 3850.57 117.76ZM3961.93 118C3961.93 108.08 3959.93 99.44 3955.93 92.08C3951.93 84.72 3946.49 79.12 3939.61 75.28C3932.89 71.28 3925.45 69.28 3917.29 69.28C3909.13 69.28 3901.69 71.2 3894.97 75.04C3888.25 78.88 3882.89 84.48 3878.89 91.84C3874.89 99.2 3872.89 107.84 3872.89 117.76C3872.89 127.84 3874.89 136.64 3878.89 144.16C3882.89 151.52 3888.25 157.2 3894.97 161.2C3901.69 165.04 3909.13 166.96 3917.29 166.96C3925.45 166.96 3932.89 165.04 3939.61 161.2C3946.49 157.2 3951.93 151.52 3955.93 144.16C3959.93 136.64 3961.93 127.92 3961.93 118ZM4027.88 185.44C4023.72 185.44 4020.2 184 4017.32 181.12C4014.44 178.24 4013 174.72 4013 170.56C4013 166.4 4014.44 162.88 4017.32 160C4020.2 157.12 4023.72 155.68 4027.88 155.68C4031.88 155.68 4035.24 157.12 4037.96 160C4040.84 162.88 4042.28 166.4 4042.28 170.56C4042.28 174.72 4040.84 178.24 4037.96 181.12C4035.24 184 4031.88 185.44 4027.88 185.44ZM4229.85 16.72V34.48H4157.13V90.88H4216.17V108.64H4157.13V184H4135.29V16.72H4229.85ZM4313.59 186.16C4301.27 186.16 4290.07 183.36 4279.99 177.76C4270.07 172.16 4262.23 164.24 4256.47 154C4250.87 143.6 4248.07 131.6 4248.07 118C4248.07 104.56 4250.95 92.72 4256.71 82.48C4262.63 72.08 4270.63 64.16 4280.71 58.72C4290.79 53.12 4302.07 50.32 4314.55 50.32C4327.03 50.32 4338.31 53.12 4348.39 58.72C4358.47 64.16 4366.39 72 4372.15 82.24C4378.07 92.48 4381.03 104.4 4381.03 118C4381.03 131.6 4377.99 143.6 4371.91 154C4365.99 164.24 4357.91 172.16 4347.67 177.76C4337.43 183.36 4326.07 186.16 4313.59 186.16ZM4313.59 166.96C4321.43 166.96 4328.79 165.12 4335.67 161.44C4342.55 157.76 4348.07 152.24 4352.23 144.88C4356.55 137.52 4358.71 128.56 4358.71 118C4358.71 107.44 4356.63 98.48 4352.47 91.12C4348.31 83.76 4342.87 78.32 4336.15 74.8C4329.43 71.12 4322.15 69.28 4314.31 69.28C4306.31 69.28 4298.95 71.12 4292.23 74.8C4285.67 78.32 4280.39 83.76 4276.39 91.12C4272.39 98.48 4270.39 107.44 4270.39 118C4270.39 128.72 4272.31 137.76 4276.15 145.12C4280.15 152.48 4285.43 158 4291.99 161.68C4298.55 165.2 4305.75 166.96 4313.59 166.96ZM4431.59 73.84C4435.43 66.32 4440.87 60.48 4447.91 56.32C4455.11 52.16 4463.83 50.08 4474.07 50.08V72.64H4468.31C4443.83 72.64 4431.59 85.92 4431.59 112.48V184H4409.75V52.48H4431.59V73.84ZM4553.52 50.32C4564.88 50.32 4574.8 52.8 4583.28 57.76C4591.92 62.72 4598.32 68.96 4602.48 76.48V52.48H4624.56V186.88C4624.56 198.88 4622 209.52 4616.88 218.8C4611.76 228.24 4604.4 235.6 4594.8 240.88C4585.36 246.16 4574.32 248.8 4561.68 248.8C4544.4 248.8 4530 244.72 4518.48 236.56C4506.96 228.4 4500.16 217.28 4498.08 203.2H4519.68C4522.08 211.2 4527.04 217.6 4534.56 222.4C4542.08 227.36 4551.12 229.84 4561.68 229.84C4573.68 229.84 4583.44 226.08 4590.96 218.56C4598.64 211.04 4602.48 200.48 4602.48 186.88V159.28C4598.16 166.96 4591.76 173.36 4583.28 178.48C4574.8 183.6 4564.88 186.16 4553.52 186.16C4541.84 186.16 4531.2 183.28 4521.6 177.52C4512.16 171.76 4504.72 163.68 4499.28 153.28C4493.84 142.88 4491.12 131.04 4491.12 117.76C4491.12 104.32 4493.84 92.56 4499.28 82.48C4504.72 72.24 4512.16 64.32 4521.6 58.72C4531.2 53.12 4541.84 50.32 4553.52 50.32ZM4602.48 118C4602.48 108.08 4600.48 99.44 4596.48 92.08C4592.48 84.72 4587.04 79.12 4580.16 75.28C4573.44 71.28 4566 69.28 4557.84 69.28C4549.68 69.28 4542.24 71.2 4535.52 75.04C4528.8 78.88 4523.44 84.48 4519.44 91.84C4515.44 99.2 4513.44 107.84 4513.44 117.76C4513.44 127.84 4515.44 136.64 4519.44 144.16C4523.44 151.52 4528.8 157.2 4535.52 161.2C4542.24 165.04 4549.68 166.96 4557.84 166.96C4566 166.96 4573.44 165.04 4580.16 161.2C4587.04 157.2 4592.48 151.52 4596.48 144.16C4600.48 136.64 4602.48 127.92 4602.48 118ZM4781.46 113.2C4781.46 117.36 4781.22 121.76 4780.74 126.4H4675.62C4676.42 139.36 4680.82 149.52 4688.82 156.88C4696.98 164.08 4706.82 167.68 4718.34 167.68C4727.78 167.68 4735.62 165.52 4741.86 161.2C4748.26 156.72 4752.74 150.8 4755.3 143.44H4778.82C4775.3 156.08 4768.26 166.4 4757.7 174.4C4747.14 182.24 4734.02 186.16 4718.34 186.16C4705.86 186.16 4694.66 183.36 4684.74 177.76C4674.98 172.16 4667.3 164.24 4661.7 154C4656.1 143.6 4653.3 131.6 4653.3 118C4653.3 104.4 4656.02 92.48 4661.46 82.24C4666.9 72 4674.5 64.16 4684.26 58.72C4694.18 53.12 4705.54 50.32 4718.34 50.32C4730.82 50.32 4741.86 53.04 4751.46 58.48C4761.06 63.92 4768.42 71.44 4773.54 81.04C4778.82 90.48 4781.46 101.2 4781.46 113.2ZM4758.9 108.64C4758.9 100.32 4757.06 93.2 4753.38 87.28C4749.7 81.2 4744.66 76.64 4738.26 73.6C4732.02 70.4 4725.06 68.8 4717.38 68.8C4706.34 68.8 4696.9 72.32 4689.06 79.36C4681.38 86.4 4676.98 96.16 4675.86 108.64H4758.9ZM4987.56 52.48L4908.36 245.92H4885.8L4911.72 182.56L4858.68 52.48H4882.92L4924.2 159.04L4965 52.48H4987.56ZM5066.87 186.16C5054.55 186.16 5043.35 183.36 5033.27 177.76C5023.35 172.16 5015.51 164.24 5009.75 154C5004.15 143.6 5001.35 131.6 5001.35 118C5001.35 104.56 5004.23 92.72 5009.99 82.48C5015.91 72.08 5023.91 64.16 5033.99 58.72C5044.07 53.12 5055.35 50.32 5067.83 50.32C5080.31 50.32 5091.59 53.12 5101.67 58.72C5111.75 64.16 5119.67 72 5125.43 82.24C5131.35 92.48 5134.31 104.4 5134.31 118C5134.31 131.6 5131.27 143.6 5125.19 154C5119.27 164.24 5111.19 172.16 5100.95 177.76C5090.71 183.36 5079.35 186.16 5066.87 186.16ZM5066.87 166.96C5074.71 166.96 5082.07 165.12 5088.95 161.44C5095.83 157.76 5101.35 152.24 5105.51 144.88C5109.83 137.52 5111.99 128.56 5111.99 118C5111.99 107.44 5109.91 98.48 5105.75 91.12C5101.59 83.76 5096.15 78.32 5089.43 74.8C5082.71 71.12 5075.43 69.28 5067.59 69.28C5059.59 69.28 5052.23 71.12 5045.51 74.8C5038.95 78.32 5033.67 83.76 5029.67 91.12C5025.67 98.48 5023.67 107.44 5023.67 118C5023.67 128.72 5025.59 137.76 5029.43 145.12C5033.43 152.48 5038.71 158 5045.27 161.68C5051.83 165.2 5059.03 166.96 5066.87 166.96ZM5279.67 52.48V184H5257.83V164.56C5253.67 171.28 5247.83 176.56 5240.31 180.4C5232.95 184.08 5224.79 185.92 5215.83 185.92C5205.59 185.92 5196.39 183.84 5188.23 179.68C5180.07 175.36 5173.59 168.96 5168.79 160.48C5164.15 152 5161.83 141.68 5161.83 129.52V52.48H5183.43V126.64C5183.43 139.6 5186.71 149.6 5193.27 156.64C5199.83 163.52 5208.79 166.96 5220.15 166.96C5231.83 166.96 5241.03 163.36 5247.75 156.16C5254.47 148.96 5257.83 138.48 5257.83 124.72V52.48H5279.67ZM5338.38 73.84C5342.22 66.32 5347.66 60.48 5354.7 56.32C5361.9 52.16 5370.62 50.08 5380.86 50.08V72.64H5375.1C5350.62 72.64 5338.38 85.92 5338.38 112.48V184H5316.54V52.48H5338.38V73.84ZM5523.58 70.48H5495.98V184H5474.14V70.48H5457.1V52.48H5474.14V43.12C5474.14 28.4 5477.9 17.68 5485.42 10.96C5493.1 4.07999 5505.34 0.639986 5522.14 0.639986V18.88C5512.54 18.88 5505.74 20.8 5501.74 24.64C5497.9 28.32 5495.98 34.48 5495.98 43.12V52.48H5523.58V70.48ZM5665.68 52.48V184H5643.84V164.56C5639.68 171.28 5633.84 176.56 5626.32 180.4C5618.96 184.08 5610.8 185.92 5601.84 185.92C5591.6 185.92 5582.4 183.84 5574.24 179.68C5566.08 175.36 5559.6 168.96 5554.8 160.48C5550.16 152 5547.84 141.68 5547.84 129.52V52.48H5569.44V126.64C5569.44 139.6 5572.72 149.6 5579.28 156.64C5585.84 163.52 5594.8 166.96 5606.16 166.96C5617.84 166.96 5627.04 163.36 5633.76 156.16C5640.48 148.96 5643.84 138.48 5643.84 124.72V52.48H5665.68ZM5729.2 70.48V148C5729.2 154.4 5730.56 158.96 5733.28 161.68C5736 164.24 5740.72 165.52 5747.44 165.52H5763.52V184H5743.84C5731.68 184 5722.56 181.2 5716.48 175.6C5710.4 170 5707.36 160.8 5707.36 148V70.48H5690.32V52.48H5707.36V19.36H5729.2V52.48H5763.52V70.48H5729.2ZM5906.62 52.48V184H5884.78V164.56C5880.62 171.28 5874.78 176.56 5867.26 180.4C5859.9 184.08 5851.74 185.92 5842.78 185.92C5832.54 185.92 5823.34 183.84 5815.18 179.68C5807.02 175.36 5800.54 168.96 5795.74 160.48C5791.1 152 5788.78 141.68 5788.78 129.52V52.48H5810.38V126.64C5810.38 139.6 5813.66 149.6 5820.22 156.64C5826.78 163.52 5835.74 166.96 5847.1 166.96C5858.78 166.96 5867.98 163.36 5874.7 156.16C5881.42 148.96 5884.78 138.48 5884.78 124.72V52.48H5906.62ZM5965.34 73.84C5969.18 66.32 5974.62 60.48 5981.66 56.32C5988.86 52.16 5997.58 50.08 6007.82 50.08V72.64H6002.06C5977.58 72.64 5965.34 85.92 5965.34 112.48V184H5943.5V52.48H5965.34V73.84ZM6153.03 113.2C6153.03 117.36 6152.79 121.76 6152.31 126.4H6047.19C6047.99 139.36 6052.39 149.52 6060.39 156.88C6068.55 164.08 6078.39 167.68 6089.91 167.68C6099.35 167.68 6107.19 165.52 6113.43 161.2C6119.83 156.72 6124.31 150.8 6126.87 143.44H6150.39C6146.87 156.08 6139.83 166.4 6129.27 174.4C6118.71 182.24 6105.59 186.16 6089.91 186.16C6077.43 186.16 6066.23 183.36 6056.31 177.76C6046.55 172.16 6038.87 164.24 6033.27 154C6027.67 143.6 6024.87 131.6 6024.87 118C6024.87 104.4 6027.59 92.48 6033.03 82.24C6038.47 72 6046.07 64.16 6055.83 58.72C6065.75 53.12 6077.11 50.32 6089.91 50.32C6102.39 50.32 6113.43 53.04 6123.03 58.48C6132.63 63.92 6139.99 71.44 6145.11 81.04C6150.39 90.48 6153.03 101.2 6153.03 113.2ZM6130.47 108.64C6130.47 100.32 6128.63 93.2 6124.95 87.28C6121.27 81.2 6116.23 76.64 6109.83 73.6C6103.59 70.4 6096.63 68.8 6088.95 68.8C6077.91 68.8 6068.47 72.32 6060.63 79.36C6052.95 86.4 6048.55 96.16 6047.43 108.64H6130.47Z" fill="#797979"/>
</svg>
