<svg width="2376" height="1669" viewBox="0 0 2376 1669" fill="none" xmlns="http://www.w3.org/2000/svg">
<g filter="url(#filter0_f_88_408)">
<path d="M1875.62 1169C1875.62 1103.93 1858.34 980.617 1823.8 920.5C1789.25 860.383 1806.25 744.511 1742.42 698.5C1678.6 652.489 1650.34 608.901 1566.95 584C1483.55 559.099 1277.62 500 1187.36 500C1097.09 500 908.887 597.099 825.494 622C742.1 646.901 733.847 669.989 670.02 716C606.194 762.011 586.865 872.764 552.322 932.88C517.779 992.997 500 1057.43 500 1122.5L500 1158C500 1113.59 601.376 988 643.654 958.5C667.231 917.467 781.929 890.905 825.494 859.5C869.059 828.095 950.897 827.036 1007.82 810.04C1064.74 793.043 1125.74 803.5 1187.36 803.5C1248.97 803.5 1309.97 793.043 1366.89 810.04C1423.81 827.036 1493.38 828.095 1536.94 859.5C1580.51 890.905 1702.48 908.467 1726.06 949.5C1749.63 990.533 1849.71 1046.59 1849.71 1091L1875.62 1169Z" fill="#041A53"/>
</g>
<g style="mix-blend-mode:plus-lighter">
<path d="M1981.44 1117.25C1946.36 1023.97 1848.1 939.961 1703.85 879.589C1559.57 819.207 1378.19 786.204 1191.01 786.25C1003.82 786.296 822.508 819.39 678.346 879.844C534.208 940.287 436.118 1024.35 401.216 1117.64" stroke="#969E9C" stroke-opacity="0.15" stroke-width="1.5"/>
</g>
<g filter="url(#filter1_f_88_408)">
<path d="M1942.9 1035C1942.9 1002.51 1923.91 940.949 1885.94 910.936C1847.97 880.922 1866.65 823.073 1796.5 800.102C1726.34 777.13 1695.29 755.369 1603.63 742.937C1511.96 730.505 1285.61 701 1186.4 701C1087.19 701 880.326 749.477 788.664 761.909C697.003 774.341 687.932 785.867 617.777 808.839C547.623 831.81 526.377 887.103 488.41 917.117C450.442 947.13 430.901 979.298 430.901 1011.78L430.901 1029.51C430.901 1007.33 542.327 944.635 588.796 929.907C614.711 909.422 740.78 896.16 788.664 880.481C836.548 864.802 926.5 864.274 989.063 855.788C1051.63 847.303 1118.68 852.523 1186.4 852.523C1254.12 852.523 1321.18 847.303 1383.74 855.788C1446.3 864.274 1522.76 864.802 1570.65 880.481C1618.53 896.16 1752.59 904.928 1778.51 925.414C1804.42 945.9 1914.42 973.885 1914.42 996.058L1942.9 1035Z" fill="#041A53"/>
</g>
<defs>
<filter id="filter0_f_88_408" x="0" y="0" width="2375.62" height="1669" filterUnits="userSpaceOnUse" color-interpolation-filters="sRGB">
<feFlood flood-opacity="0" result="BackgroundImageFix"/>
<feBlend mode="normal" in="SourceGraphic" in2="BackgroundImageFix" result="shape"/>
<feGaussianBlur stdDeviation="250" result="effect1_foregroundBlur_88_408"/>
</filter>
<filter id="filter1_f_88_408" x="190.901" y="461" width="1992" height="814" filterUnits="userSpaceOnUse" color-interpolation-filters="sRGB">
<feFlood flood-opacity="0" result="BackgroundImageFix"/>
<feBlend mode="normal" in="SourceGraphic" in2="BackgroundImageFix" result="shape"/>
<feGaussianBlur stdDeviation="120" result="effect1_foregroundBlur_88_408"/>
</filter>
</defs>
</svg>
